<svg width="84" height="82" viewBox="0 0 84 82" fill="none" xmlns="http://www.w3.org/2000/svg">
<path d="M28.8685 81.1533C29.5068 81.181 30.1382 81.0125 30.6777 80.6705C31.2173 80.3284 31.6391 79.8293 31.8863 79.2402L33.2335 74.7135C33.8802 74.471 34.5269 74.2285 35.1466 73.9321L39.0266 76.0338C39.6208 76.3494 40.301 76.4648 40.9661 76.3628C41.6311 76.2609 42.2455 75.947 42.718 75.468L46.5171 71.6419C46.9918 71.1662 47.3006 70.5503 47.3977 69.8854C47.4948 69.2205 47.375 68.5419 47.056 67.9505L45.0083 64.0435C45.3314 63.3765 45.6192 62.693 45.8705 61.9957L50.1277 60.7024C50.7448 60.4865 51.2779 60.081 51.6505 59.5438C52.0232 59.0066 52.2164 58.3652 52.2024 57.7116L52.2024 52.3227C52.203 51.6533 51.9886 51.0014 51.5908 50.463C51.1931 49.9246 50.633 49.5281 49.993 49.3319L45.8435 48.0655C45.5935 47.3589 45.3057 46.6664 44.9813 45.9908L47.0291 42.1646C47.3416 41.5762 47.4578 40.9032 47.3609 40.244C47.264 39.5848 46.9589 38.9738 46.4902 38.5002L42.718 34.5932C42.2436 34.1081 41.6242 33.7905 40.9534 33.6884C40.2826 33.5864 39.5969 33.7053 38.9996 34.0274L35.416 36.0213C34.7665 35.7082 34.1009 35.4293 33.4221 35.186L32.1558 30.9288C31.9682 30.2815 31.5748 29.713 31.0351 29.3094C30.4954 28.9059 29.8388 28.6892 29.1649 28.6924L23.776 28.6924C23.1067 28.6951 22.4563 28.9144 21.922 29.3175C21.3878 29.7207 20.9984 30.2859 20.8121 30.9288L19.5457 35.213C18.885 35.4575 18.2375 35.7363 17.6057 36.0483L13.6719 33.9466C13.0776 33.631 12.3974 33.5156 11.7324 33.6176C11.0673 33.7195 10.4529 34.0334 9.98046 34.5124L6.20824 38.3385C5.72918 38.811 5.41535 39.4254 5.31341 40.0904C5.21146 40.7555 5.32685 41.4357 5.64241 42.0299L7.74408 46.0177C7.44769 46.6374 7.20519 47.2841 6.96269 47.9577L2.59769 49.278C1.96271 49.4789 1.40852 49.8774 1.01593 50.4154C0.623332 50.9535 0.412852 51.6028 0.415183 52.2688L0.415183 57.6577C0.414633 58.3271 0.629019 58.979 1.02677 59.5174C1.42452 60.0558 1.98463 60.4523 2.62464 60.6485L6.88185 61.9149C7.09741 62.5616 7.36685 63.1813 7.66324 63.801L5.53463 67.8427C5.22213 68.4312 5.10587 69.1041 5.20281 69.7633C5.29975 70.4226 5.60483 71.0335 6.07352 71.5071L9.84574 75.3333C10.3201 75.8184 10.9395 76.136 11.6103 76.238C12.2811 76.3401 12.9669 76.2211 13.5641 75.8991L17.471 73.7705C18.0818 74.0579 18.7015 74.3183 19.3302 74.5519L20.5966 78.9169C20.7841 79.5642 21.1775 80.1327 21.7172 80.5362C22.2569 80.9398 22.9135 81.1564 23.5874 81.1533L28.8685 81.1533ZM24.4766 76.8421L22.806 71.1569L21.6744 70.8335C20.5602 70.5011 19.4852 70.0494 18.468 69.4863L17.4441 68.9205L12.2977 71.6149L9.60324 68.9205L12.2977 63.5316L11.7588 62.5346C11.2071 61.5059 10.7646 60.4222 10.4385 59.3013L10.1152 58.1696L4.4838 56.4721L4.4838 53.1041L10.0882 51.4066L10.4116 50.2749C10.7363 49.1449 11.1788 48.0522 11.7319 47.0146L12.2707 46.0177L9.5763 40.7905L12.2707 38.096L17.498 40.7905L18.5219 40.1977C19.6122 39.6571 20.7601 39.2413 21.9438 38.9583L22.9407 38.5002L24.6382 33.1113L28.168 33.1113L29.8116 38.5002L30.9163 38.8505C32.0713 39.2 33.1831 39.6791 34.2305 40.2785L35.416 40.9252L40.4008 38.2308L42.9335 40.9252L40.2391 46.0177L40.8049 47.0416C41.3947 48.1186 41.8646 49.2571 42.206 50.4366L42.5294 51.5413L47.9183 53.2388L47.9183 56.9571L42.5294 58.6277L42.206 59.7324C41.8577 60.875 41.388 61.9771 40.8049 63.0196L40.2391 64.0435L42.9335 69.2169L40.2391 71.9113L35.1466 69.2169L34.1227 69.7827C33.0876 70.3478 31.9945 70.7995 30.8624 71.1299L29.7307 71.4532L28.0871 77.0038L24.4766 76.8421Z" fill="black"/>
<path d="M37.1678 54.99C37.1254 52.868 36.4574 50.8058 35.2476 49.062C34.0378 47.3182 32.3401 45.9704 30.3674 45.1876C28.3946 44.4048 26.2347 44.2219 24.1584 44.6618C22.0821 45.1017 20.1819 46.1448 18.6961 47.6603C17.2103 49.1758 16.205 51.0963 15.8063 53.1809C15.4076 55.2655 15.6333 57.4214 16.455 59.3782C17.2767 61.3351 18.6578 63.0058 20.4252 64.1808C22.1927 65.3558 24.2677 65.9829 26.39 65.9833C29.2726 65.9407 32.0219 64.762 34.0401 62.7034C36.0583 60.6448 37.1823 57.8728 37.1678 54.99ZM19.7617 54.99C19.7882 53.7011 20.1947 52.4487 20.9301 51.3898C21.6654 50.3309 22.697 49.5127 23.8955 49.0378C25.094 48.5628 26.4061 48.4522 27.6672 48.7198C28.9282 48.9875 30.0823 49.6215 30.9845 50.5423C31.8868 51.4631 32.4971 52.6298 32.739 53.8961C32.9809 55.1623 32.8436 56.4719 32.3444 57.6604C31.8451 58.849 31.006 59.8637 29.9324 60.5774C28.8588 61.2911 27.5984 61.6719 26.3092 61.6722C25.4388 61.6651 24.5782 61.4867 23.7767 61.1471C22.9752 60.8074 22.2485 60.3133 21.638 59.6927C21.0275 59.0722 20.5452 58.3376 20.2186 57.5306C19.8921 56.7237 19.7277 55.8604 19.7348 54.99L19.7617 54.99Z" fill="black"/>
<path d="M8.47156 29.0421L8.47156 6.16623L78.5271 6.16623L78.5271 60.0551L57.268 60.0551C56.9228 61.2311 56.331 62.3201 55.5318 63.2493C54.7327 64.1786 53.7446 64.9268 52.6335 65.444L78.5271 65.444C79.9563 65.444 81.327 64.8763 82.3376 63.8656C83.3483 62.855 83.916 61.4843 83.916 60.0551L83.916 6.16623C83.916 4.73701 83.3483 3.36633 82.3376 2.35571C81.327 1.3451 79.9563 0.777344 78.5271 0.777344L8.47156 0.77734C7.04234 0.77734 5.67165 1.3451 4.66103 2.35571C3.65042 3.36632 3.08267 4.73701 3.08267 6.16623L3.08267 33.7304L5.99267 30.7665C6.70772 30.0463 7.54765 29.462 8.47156 29.0421Z" fill="black"/>
</svg>
