<svg width="61" height="79" viewBox="0 0 61 79" fill="none" xmlns="http://www.w3.org/2000/svg">
<path d="M2.5 6.48145C2.5 4.54845 4.067 2.98145 6 2.98145H54.4593C56.3923 2.98145 57.9593 4.54845 57.9593 6.48145V73C57.9593 74.933 56.3923 76.5 54.4593 76.5H6C4.06701 76.5 2.5 74.933 2.5 73V63.2963V6.48145Z" stroke="black" stroke-width="5"/>
<circle cx="30.2306" cy="69.5782" r="3.14074" fill="black"/>
<path fill-rule="evenodd" clip-rule="evenodd" d="M23.866 17.3633L27.2151 18.1977L16.6958 59.3707L13.3477 58.5363L23.866 17.3633ZM32.486 23.2303L30.1991 25.5616L44.8238 40.9805L47.1106 38.6492L32.486 23.2303Z" fill="black"/>
<path fill-rule="evenodd" clip-rule="evenodd" d="M32.5113 54.2673L30.2285 51.8952L44.8272 36.208L47.11 38.5801L32.5113 54.2673Z" fill="black"/>
</svg>
