<svg width="91" height="91" viewBox="0 0 91 91" fill="none" xmlns="http://www.w3.org/2000/svg">
<g clip-path="url(#clip0)">
<path d="M84.6525 85.0031H28.2177V76.5378H22.5742V87.8248C22.5742 88.5732 22.8715 89.2909 23.4007 89.8201C23.9299 90.3493 24.6476 90.6465 25.396 90.6465H87.4742C88.2226 90.6465 88.9403 90.3493 89.4695 89.8201C89.9987 89.2909 90.2959 88.5732 90.2959 87.8248V25.7465C90.2959 24.9982 89.9987 24.2805 89.4695 23.7513C88.9403 23.2221 88.2226 22.9248 87.4742 22.9248H76.1873V28.5683H84.6525V85.0031Z" fill="black"/>
<path d="M33.8609 68.0723C40.5579 68.0723 47.1046 66.0864 52.673 62.3658C58.2414 58.6451 62.5814 53.3567 65.1442 47.1695C67.7071 40.9822 68.3776 34.1739 67.0711 27.6055C65.7646 21.0372 62.5396 15.0037 57.8041 10.2682C53.0686 5.5327 47.0352 2.30776 40.4668 1.00123C33.8984 -0.305301 27.0901 0.365257 20.9029 2.92811C14.7156 5.49095 9.42727 9.83099 5.70659 15.3994C1.98591 20.9678 0 27.5144 0 34.2115C0 43.1919 3.56748 51.8046 9.91762 58.1547C16.2678 64.5049 24.8804 68.0723 33.8609 68.0723ZM33.8609 5.99408C39.4417 5.99408 44.8973 7.649 49.5376 10.7496C54.1779 13.8501 57.7946 18.2571 59.9303 23.4131C62.066 28.5692 62.6248 34.2428 61.5361 39.7164C60.4473 45.19 57.7598 50.2179 53.8136 54.1642C49.8673 58.1105 44.8394 60.7979 39.3658 61.8867C33.8922 62.9754 28.2186 62.4166 23.0625 60.2809C17.9065 58.1452 13.4995 54.5285 10.399 49.8882C7.2984 45.2479 5.64348 39.7923 5.64348 34.2115C5.64348 26.7278 8.61638 19.5506 13.9082 14.2588C19.1999 8.96698 26.3772 5.99408 33.8609 5.99408Z" fill="black"/>
</g>
<defs>
<clipPath id="clip0">
<rect width="90.2956" height="90.2956" fill="white" transform="translate(0 0.350586)"/>
</clipPath>
</defs>
</svg>
