<svg width="92" height="74" viewBox="0 0 92 74" fill="none" xmlns="http://www.w3.org/2000/svg">
<g clip-path="url(#clip0)">
<path d="M16.955 59.4519C16.955 62.2365 17.7536 64.2567 19.3506 65.5125C20.9477 66.7684 23.2889 67.4239 26.3744 67.4792V73.2111C21.1874 73.1564 17.1743 71.9689 14.3352 69.6486C11.496 67.3282 10.0756 64.0661 10.0741 59.8621V47.4534C10.0741 44.6127 9.21404 42.5856 7.49399 41.3722C5.77395 40.1588 3.2766 39.5513 0.00195312 39.5498V33.7762C3.551 33.7216 6.11718 33.066 7.70049 31.8096C9.28381 30.5531 10.0755 28.6148 10.0755 25.9948V13.4648C10.0755 9.2334 11.5497 5.94377 14.4981 3.59595C17.4465 1.24813 21.405 0.0742187 26.3735 0.0742188V5.7663C20.0945 5.93018 16.955 8.6473 16.955 13.9176V25.9986C16.955 31.8673 13.9114 35.3344 7.82411 36.3999V36.891C13.9114 37.9559 16.955 41.423 16.955 47.2923V59.4519Z" fill="black"/>
<path d="M61.6243 0.476562L34.5293 73.1601H29.0723L56.1672 0.476562H61.6243Z" fill="black"/>
<path d="M83.8749 36.397C77.7876 35.3322 74.7439 31.8651 74.7439 25.9957V13.9176C74.7439 8.64886 71.6454 5.933 65.4482 5.77004V0.0742188C70.4713 0.0742188 74.423 1.26171 77.3034 3.63669C80.1838 6.01166 81.6238 9.28771 81.6235 13.4648V25.9957C81.6235 28.6439 82.4289 30.589 84.0397 31.8311C85.6505 33.0732 88.2299 33.7216 91.778 33.7762V39.5503C88.4475 39.5503 85.9222 40.1577 84.2022 41.3727C82.4821 42.5877 81.6221 44.6147 81.6221 47.4539V59.8626C81.6221 64.0394 80.223 67.295 77.4247 69.6294C74.6264 71.9638 70.6339 73.1577 65.4473 73.2111V67.4782C68.4775 67.4236 70.7844 66.7681 72.368 65.5116C73.9517 64.2551 74.7433 62.2349 74.743 59.451V47.2895C74.743 44.1772 75.4938 41.8021 76.9953 40.1641C78.4968 38.5262 80.79 37.4336 83.8749 36.8864V36.397Z" fill="black"/>
</g>
<defs>
<clipPath id="clip0">
<rect width="91.7775" height="73.1368" fill="white" transform="translate(0 0.0742188)"/>
</clipPath>
</defs>
</svg>
